<svg xmlns="http://www.w3.org/2000/svg" viewBox="0 0 64 64" fill="none" role="img" aria-label="velo-text">
  <rect width="64" height="64" rx="14" fill="#3659e3"/>
  <path fill="#2a46c4" d="M42 8h8a14 14 0 0 1 14 14v8L42 8Z"/>
  <path fill="#fff" d="M18 14h20l10 10v26a6 6 0 0 1-6 6H18a6 6 0 0 1-6-6V20a6 6 0 0 1 6-6Z"/>
  <path fill="#d9e2ff" d="M38 14v8a2 2 0 0 0 2 2h8L38 14Z"/>
  <rect x="20" y="32" width="18" height="2.5" rx="1.25" fill="#3659e3" opacity=".35"/>
  <rect x="20" y="38" width="14" height="2.5" rx="1.25" fill="#3659e3" opacity=".28"/>
  <rect x="20" y="24" width="22" height="10" rx="5" fill="#3659e3"/>
  <text x="31" y="31.5" text-anchor="middle" fill="#fff" font-family="ui-monospace, SFMono-Regular, Menlo, monospace" font-size="7" font-weight="700">{{ }}</text>
  <path stroke="#9db0ff" stroke-linecap="round" stroke-width="1.8" d="M9 44h7M9 49h5M9 54h3" opacity=".9"/>
</svg>
